<!DOCTYPE svg  PUBLIC '-//W3C//DTD SVG 1.1//EN'  'http://www.w3.org/Graphics/SVG/1.1/DTD/svg11.dtd'><svg style="display: none;" aria-hidden="true" xmlns="http://www.w3.org/2000/svg" xmlns:xlink="http://www.w3.org/1999/xlink"><symbol viewBox="0 0 512 512" id="svg-email-icon-white" xmlns="http://www.w3.org/2000/svg"><path d="M256 352c-16.53 0-33.06-5.422-47.16-16.41L0 173.2V400c0 26.5 21.49 48 48 48h416c26.51 0 48-21.49 48-48V173.2L303.2 335.7C289.1 346.6 272.5 352 256 352zM16.29 145.3l212.2 165.1c16.19 12.6 38.87 12.6 55.06 0l212.2-165.1C505.1 137.3 512 125 512 112c0-26.51-21.5-48-48-48H48C21.49 64 0 85.49 0 112c0 13 6.01 25.3 16.29 33.3z" fill="#ffffff" class="afill-000000"/></symbol><symbol viewBox="0 0 64 64" id="svg-instagram-icon-color" xmlns="http://www.w3.org/2000/svg"><defs><style>.bcls-1{fill:url(#bradial-gradient);}.bcls-2{fill:#fff;}</style><radialGradient cx="-578.95" cy="-837.6" gradientTransform="translate(499.5 629.5) scale(0.75)" gradientUnits="userSpaceOnUse" id="bradial-gradient" r="197.06"><stop offset="0" stop-color="#f9ed32"/><stop offset="0.36" stop-color="#ee2a7b"/><stop offset="0.44" stop-color="#d22a8a"/><stop offset="0.6" stop-color="#8b2ab2"/><stop offset="0.83" stop-color="#1b2af0"/><stop offset="0.88" stop-color="#002aff"/></radialGradient></defs><title/><g data-name="3-instagram" id="b_3-instagram"><rect class="bcls-1" height="64" rx="11.2" ry="11.2" transform="translate(64 64) rotate(180)" width="64"/><path class="bcls-2" d="M44,56H20A12,12,0,0,1,8,44V20A12,12,0,0,1,20,8H44A12,12,0,0,1,56,20V44A12,12,0,0,1,44,56ZM20,12.8A7.21,7.21,0,0,0,12.8,20V44A7.21,7.21,0,0,0,20,51.2H44A7.21,7.21,0,0,0,51.2,44V20A7.21,7.21,0,0,0,44,12.8Z"/><path class="bcls-2" d="M32,45.6A13.6,13.6,0,1,1,45.6,32,13.61,13.61,0,0,1,32,45.6Zm0-22.4A8.8,8.8,0,1,0,40.8,32,8.81,8.81,0,0,0,32,23.2Z"/><circle class="bcls-2" cx="45.6" cy="19.2" r="2.4"/></g></symbol><symbol viewBox="0 0 16 16" xml:space="preserve" enable-background="new 0 0 16 16" id="svg-location-icon-white" xmlns="http://www.w3.org/2000/svg"><path d="M8 16s6-5.582 6-10-2.686-6-6-6-6 1.582-6 6 6 10 6 10zM5 5a3 3 0 1 1 6 0 3 3 0 0 1-6 0z" fill="#ffffff" class="cfill-000000"/></symbol><symbol viewBox="0 0 512 512" id="svg-phone-icon-white" xmlns="http://www.w3.org/2000/svg"><path d="m511.2 387-23.25 100.8c-3.266 14.25-15.79 24.22-30.46 24.22C205.2 512 0 306.8 0 54.5c0-14.66 9.969-27.2 24.22-30.45L125.02.8c14.68-3.402 29.68 4.218 35.78 18.12l46.52 108.5c5.438 12.78 1.77 27.67-8.98 36.45L144.5 207.1c33.98 69.22 90.26 125.5 159.5 159.5l44.08-53.8c8.688-10.78 23.69-14.51 36.47-8.975l108.5 46.51C506.1 357.2 514.6 372.4 511.2 387z" fill="#ffffff" class="dfill-000000"/></symbol><symbol id="svg-telegram-icon-color" viewBox="0 0 512 512" xml:space="preserve" xmlns="http://www.w3.org/2000/svg"><defs id="edefs12"/><g id="eg3885" transform="translate(297.22034,0)"><rect height="512" id="erect2987" rx="64" ry="64" style="fill:#64a9dc;fill-opacity:1;fill-rule:nonzero;stroke:none" width="512" x="-297.22034" y="5.6843419e-014"/><path d="M 127.88103,94.198045 -218.4667,227.78507 c -23.63879,9.48433 -23.4986,22.66901 -4.30871,28.54816 l 86.38017,26.96101 33.05108,101.33207 c 4.018041,11.09077 2.03732,15.48953 13.683731,15.48953 8.98786,0 12.97504,-4.09778 17.98087,-8.98786 3.1833,-3.11513 22.08378,-21.49087 43.18752,-42.00936 l 89.85158,66.38643 c 16.5339,9.12161 28.47227,4.39617 32.58935,-15.35577 L 152.92948,122.20987 C 158.96812,98.000015 143.69981,87.018565 127.88103,94.198045 z M -122.83885,277.09998 71.862531,154.2616 c 9.71969,-5.89458 18.63166,-2.72542 11.31455,3.76981 l -166.71528,150.41932 -6.49136,69.23533 -32.809291,-100.58608 z" id="epath9" style="fill:#ffffff"/></g></symbol><symbol id="svg-viber-icon-color" viewBox="0 0 512 512" xml:space="preserve" xmlns="http://www.w3.org/2000/svg"><defs id="fdefs12"/><g id="fg4780"><rect height="512" id="frect2987" rx="64" ry="64" style="fill:#7b519d;fill-opacity:1;fill-rule:nonzero;stroke:none" width="512" x="0" y="0"/><g id="fg15" transform="matrix(1.452588,0,0,1.452588,-115.17955,-97.147891)"><path d="m 369.75,304.701 c -8.397,-6.76 -17.371,-12.828 -26.204,-19.027 -17.617,-12.373 -33.73,-13.334 -46.876,6.572 -7.382,11.176 -17.716,11.665 -28.521,6.762 -29.789,-13.506 -52.791,-34.318 -66.265,-64.595 -5.96,-13.395 -5.882,-25.405 8.064,-34.879 7.383,-5.01 14.822,-10.939 14.227,-21.887 -0.777,-14.275 -35.437,-61.981 -49.124,-67.016 -5.664,-2.084 -11.304,-1.949 -17.066,-0.012 -32.095,10.793 -45.388,37.188 -32.657,68.441 37.98,93.242 104.82,158.154 196.828,197.773 5.245,2.256 11.073,3.158 14.024,3.967 20.947,0.211 45.486,-19.971 52.573,-40 6.823,-19.269 -7.597,-26.918 -19.003,-36.099 z" id="fpath17-6" style="fill:#ffffff;fill-rule:evenodd"/><path d="m 266.586,120.19 c 67.264,10.344 98.285,42.328 106.851,110.076 0.794,6.258 -1.537,15.674 7.391,15.848 9.331,0.178 7.083,-9.099 7.161,-15.363 0.789,-63.806 -54.846,-122.957 -119.458,-125.138 -4.875,0.701 -14.962,-3.362 -15.591,7.564 -0.419,7.367 8.073,6.156 13.646,7.013 z" id="fpath19-1" style="fill:#ffffff;fill-rule:evenodd"/><path d="m 279.743,138.766 c -6.47,-0.779 -15.011,-3.828 -16.523,5.15 -1.578,9.422 7.941,8.465 14.058,9.834 41.544,9.285 56.009,24.406 62.849,65.615 0.999,6.008 -0.986,15.359 9.224,13.809 7.567,-1.152 4.834,-9.168 5.467,-13.85 0.335,-39.563 -33.567,-75.574 -75.075,-80.558 z" id="fpath21-2" style="fill:#ffffff;fill-rule:evenodd"/><path d="m 283.558,171.118 c -4.319,0.107 -8.558,0.574 -10.145,5.189 -2.384,6.898 2.631,8.543 7.736,9.363 17.042,2.736 26.011,12.785 27.713,29.779 0.46,4.613 3.387,8.35 7.843,7.824 6.174,-0.736 6.732,-6.232 6.543,-11.451 0.305,-19.093 -21.275,-41.161 -39.69,-40.704 z" id="fpath23" style="fill:#ffffff;fill-rule:evenodd"/></g></g></symbol><symbol style="fill-rule:evenodd;clip-rule:evenodd;stroke-linejoin:round;stroke-miterlimit:2;" viewBox="0 0 512 512" xml:space="preserve" id="svg-whatsapp-icon-color" xmlns="http://www.w3.org/2000/svg"><g id="gWhatsApp-Logo-Icon"><path d="M116.225,-0.001c-11.264,0.512 -26.112,1.536 -32.768,3.072c-10.24,2.048 -19.968,5.12 -27.648,9.216c-9.728,4.608 -17.92,10.752 -25.088,17.92c-7.68,7.68 -13.824,15.872 -18.432,25.6c-4.096,7.68 -7.168,17.408 -9.216,27.648c-1.536,6.656 -2.56,21.504 -2.56,32.768c-0.512,4.608 -0.512,10.752 -0.512,13.824l0,251.905l0,13.824c0.512,11.264 1.536,26.112 3.072,32.768c2.048,10.24 5.12,19.968 9.216,27.648c4.608,9.728 10.752,17.92 17.92,25.088c7.68,7.68 15.872,13.824 25.6,18.432c7.68,4.096 17.408,7.168 27.648,9.216c6.656,1.536 21.504,2.56 32.768,2.56c4.608,0.512 10.752,0.512 13.824,0.512l251.904,0l13.824,0c11.264,-0.512 26.112,-1.536 32.768,-3.072c10.24,-2.048 19.968,-5.12 27.648,-9.216c9.728,-4.608 17.92,-10.752 25.088,-17.92c7.68,-7.68 13.824,-15.872 18.432,-25.6c4.096,-7.68 7.168,-17.408 9.216,-27.648c1.536,-6.656 2.56,-21.504 2.56,-32.768c0.512,-4.608 0.512,-10.752 0.512,-13.824l0,-265.729c-0.512,-11.264 -1.536,-26.112 -3.072,-32.768c-2.048,-10.24 -5.12,-19.968 -9.216,-27.648c-4.608,-9.728 -10.752,-17.92 -17.92,-25.088c-7.68,-7.68 -15.872,-13.824 -25.6,-18.432c-7.68,-4.096 -17.408,-7.168 -27.648,-9.216c-6.656,-1.536 -21.504,-2.56 -32.768,-2.56c-4.608,-0.512 -10.752,-0.512 -13.824,-0.512l-265.728,0Z" style="fill:url(#g_Linear1);fill-rule:nonzero;"/><path d="M344.754,289.698c-4.56,-2.282 -26.98,-13.311 -31.161,-14.832c-4.18,-1.521 -7.219,-2.282 -10.259,2.282c-3.041,4.564 -11.78,14.832 -14.44,17.875c-2.66,3.042 -5.32,3.423 -9.88,1.14c-4.561,-2.281 -19.254,-7.095 -36.672,-22.627c-13.556,-12.087 -22.709,-27.017 -25.369,-31.581c-2.66,-4.564 -0.283,-7.031 2,-9.304c2.051,-2.041 4.56,-5.324 6.84,-7.986c2.28,-2.662 3.04,-4.564 4.56,-7.606c1.52,-3.042 0.76,-5.705 -0.38,-7.987c-1.14,-2.282 -10.26,-24.72 -14.06,-33.848c-3.701,-8.889 -7.461,-7.686 -10.26,-7.826c-2.657,-0.132 -5.7,-0.16 -8.74,-0.16c-3.041,0 -7.98,1.141 -12.161,5.704c-4.18,4.564 -15.96,15.594 -15.96,38.032c0,22.438 16.34,44.116 18.62,47.159c2.281,3.043 32.157,49.089 77.902,68.836c10.88,4.697 19.374,7.501 25.997,9.603c10.924,3.469 20.866,2.98 28.723,1.806c8.761,-1.309 26.98,-11.029 30.781,-21.677c3.799,-10.649 3.799,-19.777 2.659,-21.678c-1.139,-1.902 -4.179,-3.043 -8.74,-5.325m-83.207,113.573l-0.061,0c-27.22,-0.011 -53.917,-7.32 -77.207,-21.137l-5.539,-3.287l-57.413,15.056l15.325,-55.959l-3.608,-5.736c-15.184,-24.145 -23.203,-52.051 -23.192,-80.704c0.033,-83.611 68.083,-151.635 151.756,-151.635c40.517,0.016 78.603,15.811 107.243,44.474c28.64,28.663 44.404,66.764 44.389,107.283c-0.035,83.617 -68.083,151.645 -151.693,151.645m129.102,-280.709c-34.457,-34.486 -80.281,-53.487 -129.103,-53.507c-100.595,0 -182.468,81.841 -182.508,182.437c-0.013,32.156 8.39,63.546 24.361,91.212l-25.892,94.545l96.75,-25.37c26.657,14.535 56.67,22.194 87.216,22.207l0.075,0c100.586,0 182.465,-81.852 182.506,-182.448c0.019,-48.751 -18.946,-94.59 -53.405,-129.076" style="fill:#fff;"/></g><defs><linearGradient gradientTransform="matrix(0,-512,-512,0,256.001,512)" gradientUnits="userSpaceOnUse" id="g_Linear1" x1="0" x2="1" y1="0" y2="0"><stop offset="0" style="stop-color:#25cf43;stop-opacity:1"/><stop offset="1" style="stop-color:#61fd7d;stop-opacity:1"/></linearGradient></defs></symbol></svg>